<?xml version="1.0" encoding="UTF-8" standalone="no"?>
<!-- Created with Inkscape (http://www.inkscape.org/) -->

<svg
   version="1.1"
   id="svg1"
   width="247.67999"
   height="247.03999"
   viewBox="0 0 247.67999 247.03999"
   xmlns="http://www.w3.org/2000/svg"
   xmlns:svg="http://www.w3.org/2000/svg">
  <defs
     id="defs1" />
  <g
     id="g1">
    <g
       id="g9">
      <ellipse
         style="fill:#ffffff"
         id="path17"
         cx="123.42128"
         cy="123.57652"
         rx="121.55831"
         ry="118.29813" />
      <path
         style="fill:#cb1519;fill-opacity:1"
         d="M 116.07871,246.69955 C 99.350074,245.6937 83.186451,241.30511 67.879666,233.613 c -4.591342,-2.30729 -11.325478,-6.26372 -11.506334,-6.76019 -0.05867,-0.16105 -0.319165,-0.29282 -0.578886,-0.29282 -0.275458,0 -0.37708,-0.15393 -0.24389,-0.36944 0.132765,-0.21482 0.08862,-0.2831 -0.105475,-0.16314 -0.475074,0.29361 -7.196805,-4.53248 -6.9251,-4.97211 0.134454,-0.21755 0.07226,-0.26356 -0.161204,-0.11927 -0.759086,0.46914 -10.941478,-8.64649 -16.02927,-14.34995 C 18.609521,191.20584 9.7195136,175.03079 4.4762627,155.9081 -0.53580722,137.62855 -1.2057988,119.13034 2.4427306,99.763068 c 0.4555767,-2.418311 0.9355328,-4.330669 1.0665691,-4.249684 0.1310363,0.08098 0.1661712,-0.229799 0.078078,-0.69063 -0.1205296,-0.63051 -0.057254,-0.774271 0.255669,-0.580874 0.2719803,0.168093 0.3380131,0.131078 0.190875,-0.106997 -0.2893252,-0.468138 0.1141772,-2.660012 0.4513236,-2.451644 0.1402881,0.0867 0.1885272,-0.09682 0.107198,-0.407819 -0.081329,-0.311004 0.7096479,-3.155202 1.7577269,-6.320442 7.3007238,-22.04847 20.4714858,-41.413229 38.2396718,-56.223175 3.757115,-3.13159 10.25779,-7.878035 12.555424,-9.1673 0.514103,-0.288477 1.006732,-0.61353 1.094732,-0.722341 0.32699,-0.404317 7.187898,-4.228829 7.586225,-4.228829 0.227576,0 0.413775,-0.0974 0.413775,-0.216444 0,-0.604848 15.496785,-7.3568892 16.884985,-7.3568892 0.322858,0 0.726188,-0.1391731 0.896288,-0.3092735 C 84.495774,6.2562231 94.003161,3.6040525 98.476594,2.6982844 104.69563,1.4390718 110.6476,0.68760054 117.52,0.29394259 c 17.83689,-1.02171529 37.48257,2.35715071 53.99999,9.28747261 5.05816,2.1222848 14.08,6.7023008 14.08,7.1478348 0,0.185579 0.0859,0.251491 0.19095,0.146472 0.46561,-0.465616 11.51768,7.003186 16.34739,11.047296 10.29339,8.619068 17.61957,16.701888 24.57852,27.116981 3.67513,5.500379 4.29506,6.561326 7.47923,12.799999 12.80476,25.0881 16.56478,54.170342 10.56401,81.708462 -5.96054,27.35353 -20.33263,50.92391 -42.2001,69.20857 -3.41453,2.85509 -9.33906,7.16296 -9.85107,7.16296 -0.18458,0 -0.38359,0.13242 -0.44226,0.29426 -0.25858,0.71334 -11.78142,7.4119 -11.79157,6.85478 -0.003,-0.14797 -0.11069,-0.10738 -0.24,0.0902 -0.30112,0.46011 -3.82505,2.22494 -7.9151,3.96398 -17.50347,7.44228 -36.8753,10.74077 -56.24128,9.57635 z M 134.88,223.91683 c 0.352,-0.093 1.614,-0.27326 2.80444,-0.40068 1.19045,-0.12742 2.24657,-0.36453 2.34693,-0.52693 0.10037,-0.16239 0.45129,-0.20995 0.77982,-0.10567 0.32854,0.10427 1.21642,0.0127 1.97307,-0.20352 0.75666,-0.2162 1.47456,-0.37072 1.59535,-0.34336 0.12079,0.0274 1.70479,-0.31622 3.52,-0.7635 5.11309,-1.25991 12.11706,-3.61141 16.10039,-5.40552 0.528,-0.23782 1.824,-0.82244 2.88,-1.29916 2.61193,-1.17914 8.93484,-4.66506 9.06666,-4.9986 0.0587,-0.14844 0.24542,-0.2699 0.415,-0.2699 0.74703,0 11.1793,-7.36913 11.44091,-8.08161 0.0903,-0.24587 -61.58704,-61.99838 -61.92289,-61.99838 -0.0316,0 -9.85862,-9.756 -21.83789,-21.68 C 92.062515,105.916 81.759113,95.727997 81.14534,95.199997 c -0.613773,-0.528 -1.122564,-1.041067 -1.130647,-1.140149 -0.02227,-0.272966 -33.375006,-33.57985 -33.626081,-33.57985 -0.361433,0 -2.30755,2.465761 -5.430082,6.88 -1.26901,1.793965 -2.945304,4.596891 -2.884467,4.82311 0.03333,0.123935 -0.0673,0.313436 -0.223625,0.421113 -0.523019,0.360264 -1.684617,2.494933 -1.472864,2.706685 0.115,0.115001 0.0451,0.209092 -0.155337,0.209092 -0.386249,0 -2.427744,3.836537 -2.045945,3.8449 0.123039,0.0027 0.07679,0.110695 -0.102777,0.24 -0.29201,0.210275 -1.464957,2.629389 -3.294717,6.7951 -1.742436,3.966907 -4.396038,12.966318 -5.283963,17.920002 -1.644715,9.17577 -1.92216,12.79624 -1.690145,22.05528 0.23231,9.2708 0.234507,9.30472 0.602766,9.30472 0.148673,0 0.180166,0.14586 0.06999,0.32413 -0.2022,0.32717 0.684942,6.58668 1.007473,7.10854 0.09566,0.15479 0.242521,0.88576 0.326349,1.62438 0.321622,2.83386 3.006021,11.62337 5.150102,16.86295 1.251667,3.05875 3.153856,7.27383 3.61025,8 0.165924,0.264 0.607121,1.056 0.980438,1.76 0.905156,1.70694 5.182533,8.9173 5.410222,9.12 0.09885,0.088 1.199754,1.528 2.446447,3.2 4.692487,6.29331 11.681731,13.73055 16.149462,17.18459 0.637002,0.49247 2.149002,1.69973 3.36,2.6828 1.210997,0.98307 3.385519,2.58336 4.832271,3.55621 1.446751,0.97285 2.526751,1.88361 2.399999,2.02391 -0.126751,0.1403 -0.04138,0.1459 0.189707,0.0124 0.233814,-0.13503 0.659592,-0.0415 0.96,0.2108 1.326782,1.11447 6.627833,3.93938 7.064059,3.76441 0.06832,-0.0274 0.212322,0.0825 0.32,0.24422 0.334776,0.50281 4.221358,2.34257 4.536864,2.14758 0.164402,-0.1016 0.298913,-0.0442 0.298913,0.12768 0,0.17183 0.684,0.56513 1.519999,0.87399 0.836,0.30886 1.664,0.65923 1.84,0.77859 0.33127,0.22467 8.062865,2.80239 10.88,3.62741 2.017582,0.59086 3.680489,0.97627 5.759999,1.33498 4.86592,0.83936 8.36195,1.41431 10.24,1.68403 2.22761,0.31994 19.89815,0.30587 21.12,-0.0168 z m 68.1654,-37.6873 c 0.29127,-0.56325 0.65115,-0.87819 0.85766,-0.75056 0.1957,0.12095 0.27283,0.0856 0.1714,-0.0785 -0.10142,-0.16411 0.098,-0.65436 0.44308,-1.08944 0.6967,-0.8783 4.44245,-6.4029 4.44245,-6.55216 0,-0.052 0.50784,-0.84922 1.12852,-1.77155 0.62069,-0.92234 1.06469,-1.74081 0.98667,-1.81883 -0.078,-0.078 0.1394,-0.4231 0.48315,-0.76685 0.34376,-0.34376 0.54686,-0.75146 0.45134,-0.90601 -0.0955,-0.15454 -0.0503,-0.32929 0.10046,-0.38832 0.38832,-0.15205 2.36201,-3.7863 2.05949,-3.79223 -0.1373,-0.003 -0.10043,-0.1107 0.0819,-0.24 0.32108,-0.22767 2.98459,-5.87219 3.50844,-7.4351 0.0295,-0.088 0.20408,-0.52 0.38795,-0.96 0.62787,-1.50242 3.20636,-9.60424 3.43576,-10.79538 0.0642,-0.33358 0.33615,-1.53308 0.60424,-2.66557 1.05252,-4.44606 1.23089,-5.44415 1.05491,-5.90277 -0.10053,-0.26196 -0.0638,-0.47628 0.0816,-0.47628 0.24705,0 0.3535,-0.69437 0.93209,-6.08 0.28592,-2.66147 0.29109,-17.05941 0.007,-20 -0.2385,-2.47033 -0.70077,-5.45862 -1.4108,-9.12 -0.69778,-3.59825 -0.69364,-3.5787 -1.0662,-5.040003 -0.1907,-0.748 -0.49877,-1.972 -0.6846,-2.72 -0.18584,-0.748 -0.91989,-3.088 -1.63124,-5.199999 -2.92299,-8.678438 -6.968,-16.720293 -12.57445,-24.999198 -1.42206,-2.099916 -5.72306,-7.480802 -5.97949,-7.480802 -0.15232,0 -0.27695,-0.163318 -0.27695,-0.36293 0,-0.55235 -5.22254,-6.122526 -8.47249,-9.036457 -1.65023,-1.479612 -2.84645,-2.796024 -2.79347,-3.074166 0.0619,-0.325009 0.009,-0.36379 -0.16079,-0.116853 -0.1787,0.260613 -0.53647,0.136052 -1.21334,-0.422434 -1.44932,-1.195842 -5.5918,-4.307203 -7.12392,-5.350679 -0.74579,-0.507937 -1.35599,-1.047937 -1.35599,-1.2 0,-0.152064 -0.108,-0.253619 -0.24,-0.225677 -0.51042,0.108044 -1.34589,-0.454734 -1.14871,-0.773777 0.11429,-0.184933 0.0558,-0.242071 -0.13022,-0.127127 -0.1858,0.114832 -1.28229,-0.364997 -2.43663,-1.066286 -1.15435,-0.701289 -2.28458,-1.312993 -2.51162,-1.359342 -0.22705,-0.04635 -0.48482,-0.163185 -0.57282,-0.259635 -0.5704,-0.625181 -3.78354,-2.201204 -11.03999,-5.415056 -3.39551,-1.503855 -14.10435,-4.712111 -16.42684,-4.92131 -0.68072,-0.06132 -1.37607,-0.197018 -1.54523,-0.30156 -0.41513,-0.256568 -5.84759,-1.119187 -8.95406,-1.421812 -2.76361,-0.269226 -17.84142,-0.3285 -20.51158,-0.08064 -0.92274,0.08565 -1.67874,0.272236 -1.68,0.414623 -0.001,0.142387 -0.13028,0.179785 -0.28671,0.08311 -0.3028,-0.187141 -6.67164,0.688358 -7.14767,0.982561 -0.15511,0.09586 -0.88635,0.243554 -1.62497,0.328201 -2.69491,0.308843 -13.388428,3.5572 -16.792426,5.101014 -0.929216,0.421427 -1.75075,0.766231 -1.825632,0.766231 -0.207375,0 -4.242397,1.875 -6.404884,2.976231 -6.330261,3.223639 -17.723093,10.970169 -17.7551,12.072539 -0.0044,0.152246 21.365512,21.51896 30.235783,30.231229 1.97111,1.936 21.589569,21.447999 43.596579,43.360004 22.00701,21.912 40.7845,40.59621 41.72774,41.52047 0.94325,0.92427 1.94826,1.93227 2.23336,2.24 0.28511,0.30774 1.22111,1.22429 2.08,2.03678 0.8589,0.8125 3.31824,3.2605 5.4652,5.44 2.14696,2.17951 4.73896,4.78217 5.76,5.78368 1.02104,1.00152 3.65643,3.67842 5.85643,5.94868 2.2,2.27025 4.24831,4.15083 4.55179,4.17906 0.32194,0.0299 0.76081,-0.3529 1.05362,-0.91914 z"
         id="path11" />
      <path
         style="fill:#110e0b"
         d="m 121.44,182.04291 c -3.12937,-0.55841 -5.38049,-1.19058 -7.40836,-2.08043 -0.5546,-0.24337 -1.1025,-0.44248 -1.21756,-0.44248 -0.11506,0 -0.8249,-0.28049 -1.57742,-0.6233 -6.54268,-2.98054 -11.415934,-4.16081 -17.220912,-4.17081 -3.221035,-0.006 -4.524851,0.14662 -8.415751,0.98215 -1.891797,0.40625 -5.624433,1.56179 -6.079999,1.88223 -0.176,0.1238 -1.184,0.56017 -2.24,0.96973 -1.056,0.40955 -2.064,0.84029 -2.24,0.95721 -0.765679,0.50865 -5.012051,1.83167 -6.88,2.14358 -1.307977,0.2184 -7.1111,0.18873 -8.32,-0.0425 -2.10148,-0.40203 -3.52,-2.6465 -3.52,-5.56959 v -0.94792 l 1.84,0.48609 c 1.09825,0.29014 3.323501,0.49537 5.52,0.5091 3.813701,0.0238 6.104008,-0.46539 9.516512,-2.03286 0.746082,-0.3427 1.425815,-0.62308 1.510517,-0.62308 0.0847,0 0.914272,-0.34183 1.843487,-0.75962 7.158902,-3.21874 16.573224,-4.49281 23.880346,-3.23181 4.31112,0.74398 8.0837,1.96071 13.32914,4.29891 3.8831,1.73094 8.67857,2.89254 11.94092,2.89246 4.3596,-1.1e-4 10.66146,-1.72536 17.49908,-4.79069 2.1137,-0.94758 7.11437,-2.56276 9.22329,-2.97906 L 154.4,168.48 l 2.80157,2.8 2.80158,2.8 h -2.64801 c -2.41743,0 -6.16615,0.73285 -8.07514,1.57865 -1.73364,0.7681 -10.14062,4.00282 -11.73643,4.51578 -6.08176,1.95491 -11.86121,2.6255 -16.10357,1.86848 z m 70.40949,-5.39328 c -1.62969,-1.65456 -1.62173,-1.70687 0.3105,-2.03953 0.528,-0.0909 1.22491,-0.26773 1.54868,-0.39294 0.54512,-0.2108 0.57202,-0.0882 0.36353,1.65759 -0.12383,1.03689 -0.32304,1.99235 -0.44268,2.12324 -0.11964,0.1309 -0.92065,-0.47586 -1.78003,-1.34836 z M 122.4,169.07539 c -3.36001,-0.34851 -8.04151,-1.75458 -12.25534,-3.68084 -2.01901,-0.92294 -6.74275,-2.57667 -8.54466,-2.99138 -2.198005,-0.50588 -4.075845,-0.64078 -8.320003,-0.59771 -5.220625,0.053 -8.786698,0.80968 -14.079999,2.98771 -8.524334,3.5075 -11.925631,4.35315 -16.449906,4.08987 -4.72746,-0.2751 -5.969342,-1.2841 -6.362052,-5.16898 l -0.158295,-1.56593 0.925127,0.21033 c 2.744445,0.62394 5.709175,0.89264 8.164387,0.73996 2.858577,-0.17776 5.40955,-0.93936 10.680739,-3.18877 5.465356,-2.33226 8.489642,-3.10219 14.822264,-3.7735 4.752973,-0.50386 8.955071,-0.0634 15.257738,1.59922 0.528,0.13929 3.192,1.15122 5.92,2.24873 5.36489,2.15837 6.69061,2.62481 9.07087,3.19146 1.96929,0.46881 7.45624,0.39544 10.00208,-0.13374 1.96162,-0.40775 7.56236,-2.29067 11.19579,-3.76393 l 1.94875,-0.79017 2.22187,2.16544 2.22187,2.16543 -5.45062,2.13919 c -6.66575,2.61608 -6.43551,2.53788 -9.77061,3.31875 -2.69185,0.63026 -8.56688,1.05538 -11.04,0.79886 z m 61.73975,-1.3065 c -1.18426,-0.10916 -1.65523,-0.47911 -5.28,-4.14743 -2.18887,-2.21516 -3.69176,-3.92497 -3.33976,-3.79957 2.58036,0.91927 5.42337,1.75846 7.11638,2.10059 2.38172,0.4813 7.45996,0.26934 9.95568,-0.41554 l 1.71205,-0.46982 -0.22327,1.80144 c -0.28686,2.31448 -0.87671,3.71231 -1.81411,4.29906 -0.76895,0.48132 -5.64486,0.86006 -8.12697,0.63127 z M 118.96,156.65884 c -0.836,-0.21995 -1.52,-0.35219 -1.52,-0.29387 0,0.1271 -3.2746,-1.03981 -4.66792,-1.66341 -2.46205,-1.10193 -8.54393,-3.37479 -10.24993,-3.8305 -2.842373,-0.75925 -7.628248,-1.43106 -10.194617,-1.43106 -2.355412,0 -8.236201,0.70737 -10.653275,1.28143 -1.097728,0.26072 -1.81989,0.20186 -3.68,-0.29991 -6.90196,-1.86181 -10.065705,-2.96914 -15.145473,-5.30103 -2.431963,-1.1164 -6.408453,-3.61668 -7.2383,-4.55119 -0.735366,-0.82812 -1.850487,-2.91256 -1.850487,-3.45904 0,-0.34929 0.391026,-0.46733 1.52,-0.45885 3.017315,0.0227 8.066316,0.62056 13.28,1.5726 1.012,0.18479 2.596,0.46908 3.52,0.63175 3.194777,0.56243 3.766969,0.67505 5.759261,1.13352 1.100406,0.25323 2.432739,0.53691 2.960739,0.63039 0.528,0.0935 1.41716,0.30314 1.975912,0.4659 0.558752,0.16277 1.078781,0.23307 1.15562,0.15623 0.07684,-0.0768 0.496847,-0.004 0.933352,0.16203 0.436505,0.16596 1.212476,0.37528 1.72438,0.46516 1.040357,0.18266 2.701508,0.52887 7.170735,1.4945 4.676375,1.01038 7.382773,1.54207 8.960003,1.76023 1.38557,0.19166 1.45671,0.16077 1.8823,-0.81724 0.54069,-1.24252 0.43924,-1.32458 -2.52964,-2.04617 -3.777747,-0.91818 -11.331954,-3.53036 -14.867857,-5.14118 -0.530643,-0.24174 -2.548806,-1.14243 -4.484805,-2.00153 -1.936,-0.8591 -5.464,-2.64469 -7.84,-3.96797 -6.029856,-3.35825 -6.765963,-3.78367 -7.729399,-4.4671 -0.467169,-0.33139 -0.924926,-0.60253 -1.017238,-0.60253 -0.228536,0 -7.893363,-5.13649 -7.893363,-5.28964 0,-0.1855 1.281429,-2.01479 2.882889,-4.11544 0.790411,-1.03679 1.719881,-2.26079 2.065488,-2.72 0.699232,-0.92907 6.107086,-7.68868 7.851623,-9.81423 2.370497,-2.88821 4.649651,-5.50511 6.635972,-7.619342 l 2.065631,-2.19865 1.809198,1.713732 C 86.606288,100.82515 115.2,129.48187 115.2,129.75977 c 0,0.1772 -0.88324,2.12174 -1.96276,4.3212 -6.22491,12.68296 -6.07572,12.15903 -3.46219,12.15903 1.18876,0 1.30909,-0.10073 2.77159,-2.32 0.84087,-1.276 1.67388,-2.56239 1.85111,-2.85863 0.17724,-0.29625 1.33677,-2.11445 2.57674,-4.04047 l 2.25448,-3.50183 2.06552,1.99176 c 1.13603,1.09547 2.4754,2.43206 2.97638,2.9702 l 0.91087,0.97844 -1.54863,2.35026 c -0.85174,1.29265 -1.69363,2.59338 -1.87087,2.89053 -0.17723,0.29714 -0.63216,1.0375 -1.01095,1.64524 l -0.6887,1.10499 3.5687,0.35484 c 1.96279,0.19516 5.25565,0.48423 7.31747,0.64239 l 3.74876,0.28756 2.07883,2.19236 c 1.75833,1.85436 2.00447,2.24879 1.59655,2.55837 -0.70463,0.53477 -6.96973,2.5642 -9.5729,3.10092 -2.766,0.57028 -7.80574,0.60711 -9.84,0.0719 z m 27.33971,-25.24147 -4.84736,-4.85737 1.03382,-1.3402 c 0.56861,-0.73711 2.40183,-3.30288 4.07383,-5.7017 1.672,-2.39882 3.3768,-4.78373 3.78844,-5.2998 l 0.74845,-0.9383 H 139.61024 128.1236 L 111.41314,96.585965 C 102.22239,87.404248 94.753595,79.736248 94.815818,79.545966 95.148559,78.528417 106.07425,69.902015 113.76,64.588549 c 7.38817,-5.107738 21.29809,-12.176547 28.64,-14.554404 0.792,-0.256509 1.728,-0.588526 2.08,-0.737817 0.352,-0.14929 1.72,-0.583859 3.04,-0.965709 1.32,-0.38185 2.76,-0.817869 3.2,-0.968932 1.63096,-0.559948 4.15478,-1.07357 4.34425,-0.884096 0.10762,0.107614 -0.91525,2.474179 -2.27304,5.259034 -1.35779,2.784856 -3.59088,7.439373 -4.96241,10.343373 -1.37153,2.904 -2.88692,6.072 -3.36752,7.04 -1.10472,2.22504 -7.88211,16.354628 -11.97231,24.959999 -1.7149,3.608 -3.71448,7.744803 -4.44349,9.192893 -0.72902,1.4481 -1.32548,2.70341 -1.32548,2.78958 0,0.0862 7.90596,0.19737 17.56881,0.2471 l 17.56882,0.0904 1.39118,1.00001 c 1.95568,1.40578 2.81939,3.03492 2.82592,5.33026 0.007,2.36173 -0.36489,3.17532 -3.32051,7.26973 -1.33401,1.848 -2.60744,3.62866 -2.82985,3.95703 -0.2224,0.32837 -0.63447,0.90437 -0.9157,1.28 -0.28122,0.37563 -1.21084,1.69097 -2.06581,2.92297 -0.85497,1.232 -1.67692,2.384 -1.82656,2.56 -0.14964,0.176 -1.10394,1.49781 -2.12065,2.93737 l -1.84858,2.61738 z m 20.5172,-25.39019 c -1.76522,-0.61672 -3.8064,-2.62527 -4.23445,-4.16676 -1.33899,-4.821954 1.40988,-8.93642 6.17789,-9.246959 2.62838,-0.171185 5.20893,1.354632 6.52805,3.859885 0.67862,1.288818 0.67723,4.810824 -0.002,6.086654 -1.64862,3.09483 -5.27982,4.58142 -8.46908,3.46718 z"
         id="path9" />
    </g>
  </g>
</svg>
